<svg id="crown_h" viewBox="0 0 221 100" xmlns="http://www.w3.org/2000/svg" xmlns:svg="http://www.w3.org/2000/svg">
 <g class="layer">
  <path d="m76,74c0,0.98 -0.8,1.76 -1.78,1.76c-0.97,0 -1.78,-0.79 -1.78,-1.76c0,-25.13 -20.63,-45.57 -45.98,-45.57c-25.36,0 -45.99,20.44 -45.99,45.57c0,0.98 -0.8,1.76 -1.78,1.76c-0.98,0 -1.78,-0.79 -1.78,-1.76c0,-27.07 22.24,-49.11 49.56,-49.11c27.32,0 49.55,22.04 49.55,49.11l-0.02,0z" fill="#A09DA5" id="svg_1" transform="rotate(-90.03150177001953 26.466550827026367,50.32767295837402)"/>
  <path d="m111.27,-57.03l0,118.52c0,0.97 -0.8,1.76 -1.78,1.76c-0.98,0 -1.78,-0.8 -1.78,-1.76l0,-118.52c0,-0.98 0.8,-1.76 1.78,-1.76c0.98,0 1.78,0.79 1.78,1.76z" fill="#A09DA5" id="svg_12" transform="rotate(-90.03150177001953 109.48511505126953,2.2270278930664062)"/>
  <path d="m111.06,38.51l0,118.52c0,0.97 -0.8,1.76 -1.78,1.76c-0.98,0 -1.78,-0.8 -1.78,-1.76l0,-118.52c0,-0.98 0.8,-1.76 1.78,-1.76c0.98,0 1.78,0.79 1.78,1.76z" fill="#A09DA5" id="svg_13" transform="rotate(-90.03150177001953 109.27764892578125,97.76715469360352)"/>
  <g id="svg_18" transform="rotate(90.0108 170.026 49.9887)">
   <path d="m134.68,85.01c-19.49,-19.31 -19.49,-50.74 0,-70.05c19.49,-19.31 51.2,-19.31 70.69,0c19.49,19.31 19.49,50.74 0,70.05c-19.49,19.31 -51.2,19.31 -70.69,0zm68.33,-67.71c-18.19,-18.03 -47.79,-18.03 -65.97,0c-18.19,18.03 -18.19,47.35 0,65.37c18.19,18.03 47.78,18.03 65.97,0c18.19,-18.03 18.19,-47.36 0,-65.37z" fill="#A09DA5" id="svg_2" transform="rotate(-90.03150177001953 170.02638626098633,49.98874282836914)"/>
   <path d="m145.17,39.25c-0.17,-0.17 -0.31,-0.39 -0.39,-0.63c-1.73,-5.07 -4.56,-9.57 -8.4,-13.38c-3.83,-3.8 -8.37,-6.59 -13.49,-8.31c-0.68,-0.23 -1.14,-0.85 -1.14,-1.57l0,-12.04c0,-0.51 0.24,-0.98 0.64,-1.3c0.41,-0.32 0.94,-0.43 1.43,-0.3c8.75,2.17 16.76,6.67 23.16,13.01c6.4,6.34 10.94,14.28 13.13,22.95c0.12,0.5 0.01,1.01 -0.3,1.42c-0.32,0.41 -0.81,0.63 -1.32,0.63l-12.15,0c-0.45,0 -0.87,-0.18 -1.18,-0.49l0.01,0l0,0.01zm-6.43,-16.34c3.91,3.87 6.87,8.42 8.79,13.53l8.79,0c-2.21,-7.29 -6.23,-13.95 -11.69,-19.36c-5.47,-5.42 -12.19,-9.39 -19.54,-11.58l0,8.71c5.15,1.9 9.74,4.83 13.65,8.71l0,0l0,-0.01z" fill="#A09DA5" id="svg_3" transform="rotate(-90.03150177001953 140.95356369018555,20.695983052253723)"/>
   <path d="m193.08,85.26c-6.4,-6.34 -10.95,-14.28 -13.14,-22.95c-0.12,-0.5 -0.01,-1.01 0.31,-1.41c0.31,-0.41 0.8,-0.64 1.31,-0.64l12.15,0c0.71,0 1.35,0.46 1.58,1.13c1.73,5.07 4.55,9.56 8.39,13.37c3.83,3.81 8.37,6.6 13.49,8.32c0.68,0.22 1.14,0.85 1.14,1.56l0,12.04c0,0.51 -0.24,0.99 -0.64,1.3c-0.41,0.32 -0.94,0.43 -1.43,0.31c-8.75,-2.17 -16.76,-6.67 -23.16,-13.01l0,-0.01l0,-0.01zm-9.34,-21.7c2.21,7.29 6.23,13.95 11.69,19.36c5.47,5.42 12.19,9.39 19.54,11.58l0,-8.7c-5.14,-1.91 -9.73,-4.84 -13.65,-8.71c-3.91,-3.88 -6.86,-8.43 -8.79,-13.53l-8.79,0l0,-0.01l0,0.01z" fill="#A09DA5" id="svg_4" transform="rotate(-90.03150177001953 199.10616302490234,79.29642295837402)"/>
   <path d="m180.34,39.21c-0.31,-0.31 -0.49,-0.72 -0.49,-1.17l0,-12.03c0,-0.71 0.46,-1.35 1.14,-1.57c5.12,-1.71 9.65,-4.52 13.49,-8.32c3.84,-3.81 6.66,-8.29 8.4,-13.37c0.22,-0.67 0.86,-1.12 1.57,-1.12l12.15,0c0.51,0 1,0.23 1.31,0.62c0.32,0.41 0.43,0.93 0.31,1.42c-2.2,8.67 -6.74,16.61 -13.14,22.95c-6.39,6.34 -14.4,10.84 -23.15,13.01c-0.5,0.13 -1.03,0.01 -1.43,-0.3c-0.05,-0.05 -0.1,-0.09 -0.15,-0.14l-0.01,0.01l0,0.01zm2.85,-12.04l0,8.71c7.35,-2.19 14.07,-6.17 19.54,-11.58c5.46,-5.41 9.47,-12.08 11.69,-19.36l-8.79,0c-1.92,5.09 -4.87,9.64 -8.79,13.53c-3.92,3.87 -8.51,6.81 -13.65,8.71l0,-0.01z" fill="#A09DA5" id="svg_5" transform="rotate(-90.03150177001953 199.06116485595703,20.659119606018066)"/>
   <path d="m122.28,97.88c-0.05,-0.04 -0.1,-0.1 -0.13,-0.15c-0.32,-0.4 -0.43,-0.92 -0.31,-1.42c2.19,-8.67 6.73,-16.61 13.14,-22.95c6.4,-6.34 14.41,-10.84 23.16,-13.01c0.49,-0.13 1.02,-0.01 1.42,0.3c0.41,0.32 0.64,0.79 0.64,1.3l0,12.04c0,0.71 -0.45,1.34 -1.13,1.57c-5.12,1.71 -9.66,4.52 -13.49,8.31c-3.84,3.81 -6.66,8.3 -8.4,13.38c-0.23,0.67 -0.86,1.12 -1.58,1.12l-12.14,0c-0.45,0 -0.88,-0.17 -1.19,-0.48l0.01,-0.01zm34.59,-33.76c-7.36,2.19 -14.08,6.17 -19.54,11.58c-5.47,5.42 -9.48,12.08 -11.69,19.36l8.79,0c1.92,-5.09 4.87,-9.64 8.79,-13.53c3.91,-3.87 8.5,-6.8 13.65,-8.71l0,-8.71l0,0.01z" fill="#A09DA5" id="svg_6" transform="rotate(-90.03150177001953 140.9916114807129,79.33337211608887)"/>
   <path d="m197.13,23.14c-14.94,-14.8 -39.25,-14.81 -54.19,0c-14.95,14.8 -14.94,38.89 0,53.7c14.94,14.8 39.25,14.81 54.19,0c14.95,-14.8 14.94,-38.89 0,-53.7z" fill="#A09DA5" id="svg_7" transform="rotate(-90.03150177001953 170.03137969970703,49.98874568939209)"/>
   <path d="m199.99,47.25l-27.53,0.19c-1.16,0 -2.09,0.94 -2.08,2.09l0,0.97c0.01,1.15 0.96,2.07 2.12,2.07l27.52,-0.19c1.16,0 2.1,-0.94 2.09,-2.09l-0.01,-0.97c0,-1.15 -0.95,-2.07 -2.11,-2.07z" fill="#110A1D" id="svg_8" transform="rotate(-90.03150177001953 186.24134063720703,49.90983963012695)"/>
   <path d="m163.81,64.04c-0.3,0 -0.6,-0.07 -0.87,-0.2l-2.15,-1.03c-0.93,-0.46 -1.36,-1.55 -0.97,-2.5l0.98,-2.44c0.31,-0.73 1.02,-1.22 1.83,-1.23c0.34,0 0.69,0.09 0.99,0.26l2.56,1.45c0.48,0.27 0.82,0.73 0.95,1.27c0.12,0.54 0.01,1.1 -0.3,1.56l-1.41,2.01c-0.36,0.53 -0.97,0.84 -1.61,0.84l0,0.01z" fill="#110A1D" id="svg_9" transform="rotate(-90.03150177001953 163.42708587646484,60.340497970581055)"/>
   <path d="m162.86,43.42c-0.64,0 -1.25,-0.3 -1.62,-0.82l-1.39,-1.94c-0.32,-0.45 -0.44,-1.01 -0.32,-1.55c0.11,-0.54 0.45,-1 0.93,-1.28l2.64,-1.54c0.3,-0.18 0.64,-0.27 0.98,-0.27c0.81,-0.01 1.54,0.47 1.85,1.2l0.99,2.37c0.4,0.94 -0.01,2.05 -0.93,2.51l-2.25,1.12c-0.27,0.13 -0.57,0.2 -0.87,0.2l-0.01,0z" fill="#110A1D" id="svg_10" transform="rotate(-90.03150177001953 163.27567291259766,39.71877670288086)"/>
   <path d="m154.43,65.4c-1.21,0 -2.29,-0.74 -2.71,-1.87l-4.59,-12.53c-0.29,0.14 -0.61,0.25 -0.92,0.33c-0.38,0.09 -0.76,0.14 -1.14,0.14c-0.22,0 -0.44,-0.01 -0.65,-0.04c-2.4,-0.3 -4.21,-2.33 -4.23,-4.73c-0.02,-2.65 2.14,-4.82 4.82,-4.84c2.67,-0.02 4.86,2.12 4.88,4.77c0,0.61 -0.11,1.2 -0.33,1.75c-0.12,0.3 -0.26,0.58 -0.43,0.86l8.73,4.18l6.69,-9.59c-0.28,-0.12 -0.55,-0.26 -0.81,-0.44c-0.48,-0.33 -0.91,-0.73 -1.25,-1.2c-0.58,-0.81 -0.89,-1.76 -0.89,-2.75c-0.02,-2.65 2.14,-4.82 4.81,-4.84c0.12,0 0.24,0 0.36,0.01c2.4,0.16 4.33,2.06 4.51,4.44c0.08,1.12 -0.22,2.19 -0.87,3.11c-0.34,0.48 -0.76,0.88 -1.23,1.21c-0.26,0.18 -0.53,0.32 -0.81,0.44l6.81,9.5l8.59,-4.26c-0.16,-0.31 -0.29,-0.62 -0.38,-0.96c-0.12,-0.41 -0.18,-0.83 -0.18,-1.26c0,-0.19 0.01,-0.38 0.03,-0.56c0.27,-2.42 2.33,-4.25 4.78,-4.26c2.67,-0.02 4.86,2.12 4.88,4.77c0.02,2.53 -1.96,4.65 -4.51,4.83l-0.3,0.01c-0.5,0 -0.98,-0.07 -1.45,-0.21c-0.3,-0.09 -0.6,-0.21 -0.87,-0.36l-4.31,12.28c-0.4,1.13 -1.48,1.89 -2.69,1.9l-24.34,0.16l0,0.01z" fill="#110A1D" id="svg_11" transform="rotate(-90.03150177001953 166.54138946533203,50.00065803527832)"/>
  </g>
 </g>
</svg>