<svg id="crown_v" viewBox="0 0 100 221" xmlns="http://www.w3.org/2000/svg" xmlns:svg="http://www.w3.org/2000/svg">
 <g class="layer">
  <path d="m99.11,49.93c0,0.99 -0.8,1.78 -1.78,1.78c-0.97,0 -1.78,-0.8 -1.78,-1.78c0,-25.36 -20.63,-45.99 -45.98,-45.99c-25.36,0 -45.99,20.63 -45.99,45.99c0,0.99 -0.8,1.78 -1.78,1.78c-0.98,0 -1.78,-0.8 -1.78,-1.78c0,-27.32 22.24,-49.56 49.56,-49.56c27.32,0 49.55,22.24 49.55,49.56l-0.02,0z" fill="#A09DA5" id="svg_1"/>
  <path d="m14.49,206.26c-19.49,-19.49 -19.49,-51.2 0,-70.69c19.49,-19.49 51.2,-19.49 70.69,0c19.49,19.49 19.49,51.2 0,70.69c-19.49,19.49 -51.2,19.49 -70.69,0zm68.33,-68.33c-18.19,-18.19 -47.79,-18.19 -65.97,0c-18.19,18.19 -18.19,47.78 0,65.97c18.19,18.19 47.78,18.19 65.97,0c18.19,-18.19 18.19,-47.79 0,-65.97z" fill="#A09DA5" id="svg_2"/>
  <path d="m83.36,160.31c-0.17,-0.17 -0.31,-0.39 -0.39,-0.64c-1.73,-5.12 -4.56,-9.66 -8.4,-13.5c-3.83,-3.83 -8.37,-6.65 -13.49,-8.39c-0.68,-0.23 -1.14,-0.86 -1.14,-1.58l0,-12.15c0,-0.51 0.24,-0.99 0.64,-1.31c0.41,-0.32 0.94,-0.43 1.43,-0.3c8.75,2.19 16.76,6.73 23.16,13.13c6.4,6.4 10.94,14.41 13.13,23.16c0.12,0.5 0.01,1.02 -0.3,1.43c-0.32,0.41 -0.81,0.64 -1.32,0.64l-12.15,0c-0.45,0 -0.87,-0.18 -1.18,-0.49l0.01,0zm-6.43,-16.49c3.91,3.91 6.87,8.5 8.79,13.65l8.79,0c-2.21,-7.36 -6.23,-14.08 -11.69,-19.54c-5.47,-5.47 -12.19,-9.48 -19.54,-11.69l0,8.79c5.15,1.92 9.74,4.87 13.65,8.79l0,0z" fill="#A09DA5" id="svg_3"/>
  <path d="m14.49,206.26c-6.4,-6.4 -10.95,-14.41 -13.14,-23.16c-0.12,-0.5 -0.01,-1.02 0.31,-1.42c0.31,-0.41 0.8,-0.65 1.31,-0.65l12.15,0c0.71,0 1.35,0.46 1.58,1.14c1.73,5.12 4.55,9.65 8.39,13.49c3.83,3.84 8.37,6.66 13.49,8.4c0.68,0.22 1.14,0.86 1.14,1.57l0,12.15c0,0.51 -0.24,1 -0.64,1.31c-0.41,0.32 -0.94,0.43 -1.43,0.31c-8.75,-2.19 -16.76,-6.73 -23.16,-13.13l0,-0.01zm-9.34,-21.9c2.21,7.36 6.23,14.08 11.69,19.54c5.47,5.47 12.19,9.48 19.54,11.69l0,-8.78c-5.14,-1.93 -9.73,-4.88 -13.65,-8.79c-3.91,-3.92 -6.86,-8.51 -8.79,-13.65l-8.79,0l0,-0.01z" fill="#A09DA5" id="svg_4"/>
  <path d="m60.43,218.95c-0.31,-0.31 -0.49,-0.73 -0.49,-1.18l0,-12.14c0,-0.72 0.46,-1.36 1.14,-1.58c5.12,-1.73 9.65,-4.56 13.49,-8.4c3.84,-3.84 6.66,-8.37 8.4,-13.49c0.22,-0.68 0.86,-1.13 1.57,-1.13l12.15,0c0.51,0 1,0.23 1.31,0.63c0.32,0.41 0.43,0.94 0.31,1.43c-2.2,8.75 -6.74,16.76 -13.14,23.16c-6.39,6.4 -14.4,10.94 -23.15,13.13c-0.5,0.13 -1.03,0.01 -1.43,-0.3c-0.05,-0.05 -0.1,-0.09 -0.15,-0.14l-0.01,0.01zm2.85,-12.15l0,8.79c7.35,-2.21 14.07,-6.23 19.54,-11.69c5.46,-5.46 9.47,-12.19 11.69,-19.54l-8.79,0c-1.92,5.14 -4.87,9.73 -8.79,13.65c-3.92,3.91 -8.51,6.87 -13.65,8.79z" fill="#A09DA5" id="svg_5"/>
  <path d="m1.79,160.31c-0.05,-0.04 -0.1,-0.1 -0.13,-0.15c-0.32,-0.4 -0.43,-0.93 -0.31,-1.43c2.19,-8.75 6.73,-16.76 13.14,-23.16c6.4,-6.4 14.41,-10.94 23.16,-13.13c0.49,-0.13 1.02,-0.01 1.42,0.3c0.41,0.32 0.64,0.8 0.64,1.31l0,12.15c0,0.72 -0.45,1.35 -1.13,1.58c-5.12,1.73 -9.66,4.56 -13.49,8.39c-3.84,3.84 -6.66,8.38 -8.4,13.5c-0.23,0.68 -0.86,1.13 -1.58,1.13l-12.14,0c-0.45,0 -0.88,-0.17 -1.19,-0.48l0.01,-0.01zm34.59,-34.07c-7.36,2.21 -14.08,6.23 -19.54,11.69c-5.47,5.47 -9.48,12.19 -11.69,19.54l8.79,0c1.92,-5.14 4.87,-9.73 8.79,-13.65c3.91,-3.91 8.5,-6.86 13.65,-8.79l0,-8.79z" fill="#A09DA5" id="svg_6"/>
  <path d="m76.93,143.82c-14.94,-14.94 -39.25,-14.95 -54.19,0c-14.95,14.94 -14.94,39.25 0,54.19c14.94,14.94 39.25,14.95 54.19,0c14.95,-14.94 14.94,-39.25 0,-54.19z" fill="#A09DA5" id="svg_7"/>
  <path d="m63.65,184.59l-27.53,0.19c-1.16,0 -2.09,0.95 -2.08,2.11l0,0.98c0.01,1.16 0.96,2.09 2.12,2.09l27.52,-0.19c1.16,0 2.1,-0.95 2.09,-2.11l-0.01,-0.98c0,-1.16 -0.95,-2.09 -2.11,-2.09z" fill="#110A1D" id="svg_8"/>
  <path d="m39.87,167.98c-0.3,0 -0.6,-0.07 -0.87,-0.2l-2.15,-1.04c-0.93,-0.46 -1.36,-1.56 -0.97,-2.52l0.98,-2.46c0.31,-0.74 1.02,-1.23 1.83,-1.24c0.34,0 0.69,0.09 0.99,0.26l2.56,1.46c0.48,0.27 0.82,0.74 0.95,1.28c0.12,0.54 0.01,1.11 -0.3,1.57l-1.41,2.03c-0.36,0.53 -0.97,0.85 -1.61,0.85l0,0.01z" fill="#110A1D" id="svg_9"/>
  <path d="m59.69,167.84c-0.64,0 -1.25,-0.3 -1.62,-0.83l-1.39,-1.96c-0.32,-0.45 -0.44,-1.02 -0.32,-1.56c0.11,-0.54 0.45,-1.01 0.93,-1.29l2.64,-1.55c0.3,-0.18 0.64,-0.27 0.98,-0.27c0.81,-0.01 1.54,0.47 1.85,1.21l0.99,2.39c0.4,0.95 -0.01,2.07 -0.93,2.53l-2.25,1.13c-0.27,0.13 -0.57,0.2 -0.87,0.2l-0.01,0z" fill="#110A1D" id="svg_10"/>
  <path d="m37.71,182.94c-1.21,0 -2.29,-0.75 -2.71,-1.89l-4.59,-12.64c-0.29,0.14 -0.61,0.25 -0.92,0.33c-0.38,0.09 -0.76,0.14 -1.14,0.14c-0.22,0 -0.44,-0.01 -0.65,-0.04c-2.4,-0.3 -4.21,-2.35 -4.23,-4.77c-0.02,-2.67 2.14,-4.86 4.82,-4.88c2.67,-0.02 4.86,2.14 4.88,4.81c0,0.62 -0.11,1.21 -0.33,1.77c-0.12,0.3 -0.26,0.59 -0.43,0.87l8.73,4.22l6.69,-9.68c-0.28,-0.12 -0.55,-0.26 -0.81,-0.44c-0.48,-0.33 -0.91,-0.74 -1.25,-1.21c-0.58,-0.82 -0.89,-1.78 -0.89,-2.78c-0.02,-2.67 2.14,-4.86 4.81,-4.88c0.12,0 0.24,0 0.36,0.01c2.4,0.16 4.33,2.08 4.51,4.48c0.08,1.13 -0.22,2.21 -0.87,3.14c-0.34,0.48 -0.76,0.89 -1.23,1.22c-0.26,0.18 -0.53,0.32 -0.81,0.44l6.81,9.59l8.59,-4.3c-0.16,-0.31 -0.29,-0.63 -0.38,-0.97c-0.12,-0.41 -0.18,-0.84 -0.18,-1.27c0,-0.19 0.01,-0.38 0.03,-0.57c0.27,-2.44 2.33,-4.29 4.78,-4.3c2.67,-0.02 4.86,2.14 4.88,4.81c0.02,2.55 -1.96,4.69 -4.51,4.87l-0.3,0.01c-0.5,0 -0.98,-0.07 -1.45,-0.21c-0.3,-0.09 -0.6,-0.21 -0.87,-0.36l-4.31,12.39c-0.4,1.14 -1.48,1.91 -2.69,1.92l-24.34,0.16l0,0.01z" fill="#110A1D" id="svg_11"/>
  <path d="m99.41,50.04l0,119.6c0,0.98 -0.8,1.78 -1.78,1.78c-0.98,0 -1.78,-0.81 -1.78,-1.78l0,-119.6c0,-0.99 0.8,-1.78 1.78,-1.78c0.98,0 1.78,0.8 1.78,1.78z" fill="#A09DA5" id="svg_12"/>
  <path d="m3.87,49.78l0,119.6c0,0.98 -0.8,1.78 -1.78,1.78c-0.98,0 -1.78,-0.81 -1.78,-1.78l0,-119.6c0,-0.99 0.8,-1.78 1.78,-1.78c0.98,0 1.78,0.8 1.78,1.78z" fill="#A09DA5" id="svg_13"/>
 </g>
</svg>